<?xml version="1.0" encoding="UTF-8" standalone="no"?>
<svg
   xmlns:dc="http://purl.org/dc/elements/1.1/"
   xmlns:cc="http://creativecommons.org/ns#"
   xmlns:rdf="http://www.w3.org/1999/02/22-rdf-syntax-ns#"
   xmlns:svg="http://www.w3.org/2000/svg"
   xmlns="http://www.w3.org/2000/svg"
   xmlns:sodipodi="http://sodipodi.sourceforge.net/DTD/sodipodi-0.dtd"
   xmlns:inkscape="http://www.inkscape.org/namespaces/inkscape"
   inkscape:version="1.0rc1 (09960d6, 2020-04-09)"
   sodipodi:docname="battery_outline.svg"
   id="svg8"
   version="1.1"
   viewBox="0 0 34.395832 23.812506"
   height="23.812506mm"
   width="34.395832mm">
  <defs
     id="defs2" />
  <sodipodi:namedview
     id="base"
     pagecolor="#ffffff"
     bordercolor="#666666"
     borderopacity="1.0"
     inkscape:pageopacity="0.0"
     inkscape:pageshadow="2"
     inkscape:zoom="4"
     inkscape:cx="52.596121"
     inkscape:cy="-8.4915699"
     inkscape:document-units="mm"
     inkscape:current-layer="layer1"
     inkscape:document-rotation="0"
     showgrid="true"
     inkscape:window-width="2158"
     inkscape:window-height="1223"
     inkscape:window-x="0"
     inkscape:window-y="23"
     inkscape:window-maximized="0"
     fit-margin-top="0"
     fit-margin-left="0"
     fit-margin-right="0"
     fit-margin-bottom="0">
    <inkscape:grid
       type="xygrid"
       id="grid32"
       originx="0"
       originy="-76.729164" />
  </sodipodi:namedview>
  <metadata
     id="metadata5">
    <rdf:RDF>
      <cc:Work
         rdf:about="">
        <dc:format>image/svg+xml</dc:format>
        <dc:type
           rdf:resource="http://purl.org/dc/dcmitype/StillImage" />
        <dc:title />
      </cc:Work>
    </rdf:RDF>
  </metadata>
  <g
     inkscape:label="Ebene 1"
     inkscape:groupmode="layer"
     id="layer1"
     transform="translate(0,-76.729164)">
    <path
       transform="matrix(0.26458333,0,0,0.26458333,0,76.729164)"
       d="M 27.5586 0 L 26.0315 0.153022 L 24.6109 0.592133 L 23.3267 1.2874 L 22.2089 2.2089 L 21.2874 3.3267 L 20.5921 4.61087 L 20.153 6.03148 L 20 7.55859 L 20 10 L 7.55859 10 L 6.03148 10.1632 L 4.61087 10.6316 L 3.3267 11.3732 L 2.2089 12.3562 L 1.2874 13.5485 L 0.592133 14.9183 L 0.153022 16.4336 L 0 18.0625 L 0 81.9375 L 0.153022 83.5664 L 0.592133 85.0817 L 1.2874 86.4515 L 2.2089 87.6438 L 3.3267 88.6268 L 4.61087 89.3684 L 6.03148 89.8368 L 7.55859 90 L 122.441 90 L 123.969 89.8368 L 125.389 89.3684 L 126.673 88.6268 L 127.791 87.6438 L 128.713 86.4515 L 129.408 85.0817 L 129.847 83.5664 L 130 81.9375 L 130 18.0625 L 129.847 16.4336 L 129.408 14.9183 L 128.713 13.5485 L 127.791 12.3562 L 126.673 11.3732 L 125.389 10.6316 L 123.969 10.1632 L 122.441 10 L 110 10 L 110 7.55859 L 109.847 6.03148 L 109.408 4.61087 L 108.713 3.3267 L 107.791 2.2089 L 106.673 1.2874 L 105.389 0.592133 L 103.969 0.153022 L 102.441 0 L 97.5586 0 L 96.0315 0.153022 L 94.6109 0.592133 L 93.3267 1.2874 L 92.2089 2.2089 L 91.2874 3.3267 L 90.5921 4.61087 L 90.153 6.03148 L 90 7.55859 L 90 10 L 40 10 L 40 7.55859 L 39.847 6.03148 L 39.4079 4.61087 L 38.7126 3.3267 L 37.7911 2.2089 L 36.6733 1.2874 L 35.3891 0.592133 L 33.9685 0.153022 L 32.4414 0 L 27.5586 0 L 27.5586 0"
       style="fill:#000000;stroke-width:1.03279"
       id="rect890" />
  </g>
</svg>
